<svg width="170" height="46" viewBox="0 0 170 46" fill="none" xmlns="http://www.w3.org/2000/svg">
<path d="M62.2662 16.1403H56.6982V13.5963H70.9782V16.1403H65.3862V30.6843H62.2662V16.1403ZM77.5312 18.2763C77.9952 18.2763 78.3952 18.3403 78.7312 18.4683L78.7072 21.2043C78.1952 20.9963 77.6672 20.8923 77.1232 20.8923C76.0992 20.8923 75.3152 21.1883 74.7712 21.7803C74.2432 22.3723 73.9792 23.1563 73.9792 24.1323V30.6843H71.0032V21.9963C71.0032 20.7163 70.9392 19.5723 70.8112 18.5643H73.6192L73.8592 20.7003C74.1632 19.9163 74.6432 19.3163 75.2992 18.9003C75.9552 18.4843 76.6992 18.2763 77.5312 18.2763ZM91.7592 18.5643V30.6843H88.8072V28.7403C88.4392 29.4123 87.9112 29.9403 87.2232 30.3243C86.5352 30.6923 85.7512 30.8763 84.8712 30.8763C83.8152 30.8763 82.8792 30.6203 82.0632 30.1083C81.2472 29.5963 80.6152 28.8683 80.1672 27.9243C79.7192 26.9803 79.4952 25.8843 79.4952 24.6363C79.4952 23.3883 79.7192 22.2843 80.1672 21.3243C80.6312 20.3483 81.2712 19.5963 82.0872 19.0683C82.9032 18.5243 83.8312 18.2523 84.8712 18.2523C85.7512 18.2523 86.5352 18.4443 87.2232 18.8283C87.9112 19.1963 88.4392 19.7163 88.8072 20.3883V18.5643H91.7592ZM85.6872 28.5243C86.6792 28.5243 87.4472 28.1803 87.9912 27.4923C88.5352 26.8043 88.8072 25.8363 88.8072 24.5883C88.8072 23.3083 88.5352 22.3243 87.9912 21.6363C87.4472 20.9483 86.6712 20.6043 85.6632 20.6043C84.6712 20.6043 83.8952 20.9643 83.3352 21.6843C82.7912 22.3883 82.5192 23.3723 82.5192 24.6363C82.5192 25.8843 82.7912 26.8443 83.3352 27.5163C83.8952 28.1883 84.6792 28.5243 85.6872 28.5243ZM100.763 15.3963C99.4666 15.3963 98.8186 16.1083 98.8186 17.5323V18.5643H101.531V20.8203H98.8186V30.6843H95.8186V20.8203H93.5146V18.5643H95.8186V17.3883C95.8186 15.9483 96.1786 14.8443 96.8986 14.0763C97.6346 13.2923 98.6826 12.9003 100.043 12.9003C100.795 12.9003 101.427 12.9963 101.939 13.1883V15.5643C101.491 15.4523 101.099 15.3963 100.763 15.3963ZM115.314 18.5643V30.6843H112.362V28.7403C111.994 29.4123 111.466 29.9403 110.778 30.3243C110.09 30.6923 109.306 30.8763 108.426 30.8763C107.37 30.8763 106.434 30.6203 105.618 30.1083C104.802 29.5963 104.17 28.8683 103.722 27.9243C103.274 26.9803 103.05 25.8843 103.05 24.6363C103.05 23.3883 103.274 22.2843 103.722 21.3243C104.186 20.3483 104.826 19.5963 105.642 19.0683C106.458 18.5243 107.386 18.2523 108.426 18.2523C109.306 18.2523 110.09 18.4443 110.778 18.8283C111.466 19.1963 111.994 19.7163 112.362 20.3883V18.5643H115.314ZM109.242 28.5243C110.234 28.5243 111.002 28.1803 111.546 27.4923C112.09 26.8043 112.362 25.8363 112.362 24.5883C112.362 23.3083 112.09 22.3243 111.546 21.6363C111.002 20.9483 110.226 20.6043 109.218 20.6043C108.226 20.6043 107.45 20.9643 106.89 21.6843C106.346 22.3883 106.074 23.3723 106.074 24.6363C106.074 25.8843 106.346 26.8443 106.89 27.5163C107.45 28.1883 108.234 28.5243 109.242 28.5243ZM118.581 13.0203H121.557V30.6843H118.581V13.0203ZM136.551 18.5643V30.3003C136.551 32.1883 136.031 33.6203 134.991 34.5963C133.951 35.5723 132.423 36.0603 130.407 36.0603C128.535 36.0603 126.887 35.6683 125.463 34.8843L125.943 32.6043C127.415 33.3723 128.879 33.7563 130.335 33.7563C132.495 33.7563 133.575 32.6843 133.575 30.5403V28.1403C133.207 28.7963 132.671 29.3323 131.967 29.7483C131.263 30.1483 130.471 30.3483 129.591 30.3483C128.535 30.3483 127.591 30.1003 126.759 29.6043C125.943 29.0923 125.303 28.3803 124.839 27.4683C124.391 26.5403 124.167 25.4843 124.167 24.3003C124.167 23.1163 124.391 22.0683 124.839 21.1563C125.303 20.2283 125.943 19.5163 126.759 19.0203C127.591 18.5083 128.535 18.2523 129.591 18.2523C130.487 18.2523 131.279 18.4443 131.967 18.8283C132.671 19.1963 133.207 19.7163 133.575 20.3883V18.5643H136.551ZM130.383 27.9963C131.375 27.9963 132.151 27.6683 132.711 27.0123C133.287 26.3563 133.575 25.4523 133.575 24.3003C133.575 23.1483 133.295 22.2443 132.735 21.5883C132.175 20.9323 131.391 20.6043 130.383 20.6043C129.391 20.6043 128.607 20.9323 128.031 21.5883C127.471 22.2443 127.191 23.1483 127.191 24.3003C127.191 25.4523 127.471 26.3563 128.031 27.0123C128.607 27.6683 129.391 27.9963 130.383 27.9963ZM151.384 18.5643V30.6843H148.432V28.7403C148.064 29.4123 147.536 29.9403 146.848 30.3243C146.16 30.6923 145.376 30.8763 144.496 30.8763C143.44 30.8763 142.504 30.6203 141.688 30.1083C140.872 29.5963 140.24 28.8683 139.792 27.9243C139.344 26.9803 139.12 25.8843 139.12 24.6363C139.12 23.3883 139.344 22.2843 139.792 21.3243C140.256 20.3483 140.896 19.5963 141.712 19.0683C142.528 18.5243 143.456 18.2523 144.496 18.2523C145.376 18.2523 146.16 18.4443 146.848 18.8283C147.536 19.1963 148.064 19.7163 148.432 20.3883V18.5643H151.384ZM145.312 28.5243C146.304 28.5243 147.072 28.1803 147.616 27.4923C148.16 26.8043 148.432 25.8363 148.432 24.5883C148.432 23.3083 148.16 22.3243 147.616 21.6363C147.072 20.9483 146.296 20.6043 145.288 20.6043C144.296 20.6043 143.52 20.9643 142.96 21.6843C142.416 22.3883 142.144 23.3723 142.144 24.6363C142.144 25.8843 142.416 26.8443 142.96 27.5163C143.52 28.1883 144.304 28.5243 145.312 28.5243ZM161.18 18.2763C161.644 18.2763 162.044 18.3403 162.38 18.4683L162.356 21.2043C161.844 20.9963 161.316 20.8923 160.772 20.8923C159.748 20.8923 158.964 21.1883 158.42 21.7803C157.892 22.3723 157.628 23.1563 157.628 24.1323V30.6843H154.652V21.9963C154.652 20.7163 154.588 19.5723 154.46 18.5643H157.268L157.508 20.7003C157.812 19.9163 158.292 19.3163 158.948 18.9003C159.604 18.4843 160.348 18.2763 161.18 18.2763Z" fill="#233348"/>
<ellipse cx="22.0962" cy="22.838" rx="21.6443" ry="22.838" fill="#458FF6"/>
<path d="M20.5216 15.8143H14.4896V13.0583H29.9596V15.8143H23.9016V31.5703H20.5216V15.8143Z" fill="white"/>
</svg>
