<svg width="212" height="68" viewBox="0 0 212 68" fill="none" xmlns="http://www.w3.org/2000/svg">
<rect x="0.396118" y="3.93604" width="211.163" height="62.3866" rx="31.1933" fill="#458FF6"/>
<path d="M49.8288 37.7559C48.5688 37.7559 47.4648 37.4859 46.5168 36.9459C45.5808 36.4059 44.8608 35.6439 44.3568 34.6599C43.8528 33.6639 43.6008 32.4999 43.6008 31.1679C43.6008 29.8479 43.8528 28.6959 44.3568 27.7119C44.8608 26.7159 45.5808 25.9539 46.5168 25.4259C47.4648 24.8859 48.5688 24.6159 49.8288 24.6159C50.6928 24.6159 51.5028 24.7539 52.2588 25.0299C53.0268 25.2939 53.6628 25.6659 54.1668 26.1459L53.4108 27.8379C52.8348 27.3699 52.2588 27.0339 51.6828 26.8299C51.1188 26.6139 50.5128 26.5059 49.8648 26.5059C48.6288 26.5059 47.6688 26.9079 46.9848 27.7119C46.3128 28.5159 45.9768 29.6679 45.9768 31.1679C45.9768 32.6799 46.3128 33.8439 46.9848 34.6599C47.6568 35.4639 48.6168 35.8659 49.8648 35.8659C50.5128 35.8659 51.1188 35.7639 51.6828 35.5599C52.2588 35.3439 52.8348 35.0019 53.4108 34.5339L54.1668 36.2259C53.6628 36.7059 53.0268 37.0839 52.2588 37.3599C51.5028 37.6239 50.6928 37.7559 49.8288 37.7559ZM60.1213 37.7379C59.1973 37.7379 58.3813 37.5459 57.6733 37.1619C56.9773 36.7779 56.4373 36.2319 56.0533 35.5239C55.6813 34.8039 55.4953 33.9639 55.4953 33.0039C55.4953 32.0439 55.6813 31.2099 56.0533 30.5019C56.4373 29.7819 56.9773 29.2299 57.6733 28.8459C58.3813 28.4619 59.1973 28.2699 60.1213 28.2699C61.0333 28.2699 61.8373 28.4619 62.5333 28.8459C63.2293 29.2299 63.7633 29.7819 64.1353 30.5019C64.5193 31.2099 64.7113 32.0439 64.7113 33.0039C64.7113 33.9639 64.5193 34.8039 64.1353 35.5239C63.7633 36.2319 63.2293 36.7779 62.5333 37.1619C61.8373 37.5459 61.0333 37.7379 60.1213 37.7379ZM60.1033 35.9739C60.8713 35.9739 61.4533 35.7279 61.8493 35.2359C62.2573 34.7319 62.4613 33.9879 62.4613 33.0039C62.4613 32.0319 62.2573 31.2939 61.8493 30.7899C61.4413 30.2739 60.8653 30.0159 60.1213 30.0159C59.3653 30.0159 58.7833 30.2739 58.3753 30.7899C57.9673 31.2939 57.7633 32.0319 57.7633 33.0039C57.7633 33.9879 57.9613 34.7319 58.3573 35.2359C58.7653 35.7279 59.3473 35.9739 60.1033 35.9739ZM71.8536 28.2699C74.0256 28.2699 75.1116 29.5179 75.1116 32.0139V37.5939H72.8616V32.1219C72.8616 31.4019 72.7236 30.8799 72.4476 30.5559C72.1716 30.2199 71.7456 30.0519 71.1696 30.0519C70.4856 30.0519 69.9336 30.2739 69.5136 30.7179C69.0936 31.1499 68.8836 31.7259 68.8836 32.4459V37.5939H66.6516V31.0779C66.6516 30.1179 66.6036 29.2599 66.5076 28.5039H68.6136L68.7756 29.9979C69.0876 29.4459 69.5076 29.0199 70.0356 28.7199C70.5756 28.4199 71.1816 28.2699 71.8536 28.2699ZM80.8273 37.7379C79.1833 37.7379 77.8753 37.3539 76.9033 36.5859L77.5333 35.0019C78.5053 35.7219 79.6153 36.0819 80.8633 36.0819C81.4033 36.0819 81.8173 35.9919 82.1053 35.8119C82.4053 35.6319 82.5553 35.3799 82.5553 35.0559C82.5553 34.7799 82.4533 34.5639 82.2493 34.4079C82.0453 34.2399 81.6973 34.0959 81.2053 33.9759L79.6933 33.6339C78.0373 33.2739 77.2093 32.4279 77.2093 31.0959C77.2093 30.5439 77.3653 30.0579 77.6773 29.6379C77.9893 29.2059 78.4273 28.8699 78.9913 28.6299C79.5553 28.3899 80.2093 28.2699 80.9533 28.2699C81.6013 28.2699 82.2253 28.3719 82.8253 28.5759C83.4253 28.7679 83.9533 29.0499 84.4093 29.4219L83.7433 30.9519C82.8313 30.2799 81.8953 29.9439 80.9353 29.9439C80.4193 29.9439 80.0173 30.0399 79.7293 30.2319C79.4413 30.4239 79.2973 30.6879 79.2973 31.0239C79.2973 31.2879 79.3813 31.4979 79.5493 31.6539C79.7293 31.8099 80.0293 31.9419 80.4493 32.0499L81.9973 32.3919C82.8973 32.5959 83.5513 32.9139 83.9593 33.3459C84.3793 33.7659 84.5893 34.3179 84.5893 35.0019C84.5893 35.8419 84.2533 36.5079 83.5813 36.9999C82.9093 37.4919 81.9913 37.7379 80.8273 37.7379ZM94.7949 28.5039V37.5939H92.5989V36.1899C92.3109 36.6939 91.9269 37.0779 91.4469 37.3419C90.9669 37.6059 90.4149 37.7379 89.7909 37.7379C87.5709 37.7379 86.4609 36.4899 86.4609 33.9939V28.5039H88.6929V34.0119C88.6929 34.6719 88.8249 35.1579 89.0889 35.4699C89.3649 35.7819 89.7849 35.9379 90.3489 35.9379C91.0089 35.9379 91.5369 35.7219 91.9329 35.2899C92.3289 34.8579 92.5269 34.2819 92.5269 33.5619V28.5039H94.7949ZM97.2376 24.3459H99.4696V37.5939H97.2376V24.3459ZM104.793 30.1959V34.2639C104.793 35.3319 105.291 35.8659 106.287 35.8659C106.563 35.8659 106.863 35.8179 107.187 35.7219V37.5039C106.791 37.6479 106.311 37.7199 105.747 37.7199C104.715 37.7199 103.923 37.4319 103.371 36.8559C102.819 36.2799 102.543 35.4519 102.543 34.3719V30.1959H100.797V28.5039H102.543V26.2899L104.793 25.5339V28.5039H107.205V30.1959H104.793ZM116.553 30.1959V34.2639C116.553 35.3319 117.051 35.8659 118.047 35.8659C118.323 35.8659 118.623 35.8179 118.947 35.7219V37.5039C118.551 37.6479 118.071 37.7199 117.507 37.7199C116.475 37.7199 115.683 37.4319 115.131 36.8559C114.579 36.2799 114.303 35.4519 114.303 34.3719V30.1959H112.557V28.5039H114.303V26.2899L116.553 25.5339V28.5039H118.965V30.1959H116.553ZM124.633 37.7379C123.709 37.7379 122.893 37.5459 122.185 37.1619C121.489 36.7779 120.949 36.2319 120.565 35.5239C120.193 34.8039 120.007 33.9639 120.007 33.0039C120.007 32.0439 120.193 31.2099 120.565 30.5019C120.949 29.7819 121.489 29.2299 122.185 28.8459C122.893 28.4619 123.709 28.2699 124.633 28.2699C125.545 28.2699 126.349 28.4619 127.045 28.8459C127.741 29.2299 128.275 29.7819 128.647 30.5019C129.031 31.2099 129.223 32.0439 129.223 33.0039C129.223 33.9639 129.031 34.8039 128.647 35.5239C128.275 36.2319 127.741 36.7779 127.045 37.1619C126.349 37.5459 125.545 37.7379 124.633 37.7379ZM124.615 35.9739C125.383 35.9739 125.965 35.7279 126.361 35.2359C126.769 34.7319 126.973 33.9879 126.973 33.0039C126.973 32.0319 126.769 31.2939 126.361 30.7899C125.953 30.2739 125.377 30.0159 124.633 30.0159C123.877 30.0159 123.295 30.2739 122.887 30.7899C122.479 31.2939 122.275 32.0319 122.275 33.0039C122.275 33.9879 122.473 34.7319 122.869 35.2359C123.277 35.7279 123.859 35.9739 124.615 35.9739ZM139.857 24.3459V37.5939H137.643V36.1359C137.367 36.6399 136.971 37.0359 136.455 37.3239C135.939 37.5999 135.351 37.7379 134.691 37.7379C133.911 37.7379 133.215 37.5399 132.603 37.1439C131.991 36.7479 131.511 36.1899 131.163 35.4699C130.827 34.7379 130.659 33.9039 130.659 32.9679C130.659 32.0319 130.827 31.2099 131.163 30.5019C131.499 29.7939 131.973 29.2479 132.585 28.8639C133.197 28.4679 133.899 28.2699 134.691 28.2699C135.339 28.2699 135.915 28.4079 136.419 28.6839C136.935 28.9479 137.331 29.3259 137.607 29.8179V24.3459H139.857ZM135.285 35.9739C136.029 35.9739 136.605 35.7159 137.013 35.1999C137.433 34.6839 137.643 33.9519 137.643 33.0039C137.643 32.0559 137.439 31.3239 137.031 30.8079C136.623 30.2919 136.047 30.0339 135.303 30.0339C134.547 30.0339 133.959 30.2919 133.539 30.8079C133.131 31.3119 132.927 32.0319 132.927 32.9679C132.927 33.9159 133.131 34.6539 133.539 35.1819C133.959 35.7099 134.541 35.9739 135.285 35.9739ZM151.002 28.5039V37.5939H148.788V36.1359C148.512 36.6399 148.116 37.0359 147.6 37.3239C147.084 37.5999 146.496 37.7379 145.836 37.7379C145.044 37.7379 144.342 37.5459 143.73 37.1619C143.118 36.7779 142.644 36.2319 142.308 35.5239C141.972 34.8159 141.804 33.9939 141.804 33.0579C141.804 32.1219 141.972 31.2939 142.308 30.5739C142.656 29.8419 143.136 29.2779 143.748 28.8819C144.36 28.4739 145.056 28.2699 145.836 28.2699C146.496 28.2699 147.084 28.4139 147.6 28.7019C148.116 28.9779 148.512 29.3679 148.788 29.8719V28.5039H151.002ZM146.448 35.9739C147.192 35.9739 147.768 35.7159 148.176 35.1999C148.584 34.6839 148.788 33.9579 148.788 33.0219C148.788 32.0619 148.584 31.3239 148.176 30.8079C147.768 30.2919 147.186 30.0339 146.43 30.0339C145.686 30.0339 145.104 30.3039 144.684 30.8439C144.276 31.3719 144.072 32.1099 144.072 33.0579C144.072 33.9939 144.276 34.7139 144.684 35.2179C145.104 35.7219 145.692 35.9739 146.448 35.9739ZM162.056 28.5039L157.826 38.2059C157.346 39.3339 156.734 40.1559 155.99 40.6719C155.246 41.1879 154.328 41.5299 153.236 41.6979L152.732 39.9699C153.584 39.7779 154.22 39.5319 154.64 39.2319C155.072 38.9439 155.42 38.5119 155.684 37.9359L155.972 37.2699L152.192 28.5039H154.55L157.16 35.0379L159.824 28.5039H162.056Z" fill="white"/>
</svg>
